# xmcd CD database file generated by OrangeCD 4.3
#
# Track frame offsets:
#	182
#	18990
#	27530
#	38950
#	53730
#	69105
#	80157
#	95357
#	106445
#	116077
#	129355
#	144422
#	156262
#	172245
#
# Disc length: 2473 seconds
#
# Revision: 1
# Processed by: cddbd v1.4PL0 Copyright (c) Steve Scherf et al.
# Submitted via: OrangeCD 4.3
#
DISCID=be09a70e
DTITLE=Various Artist - Brass Menagerie- Big Band Brass Of The Sixties
DYEAR=1992
DGENRE=Instrumental
TTITLE0=Prologue (From West Side Story) (Bernstein)
TTITLE1=Something's Coming (Bernstein)
TTITLE2=The Magic Circle (From El Amor Brujo) (De Falla)
TTITLE3=Ritual Free Dance (From El Amor Brujo) (De Falla)
TTITLE4=In The Hall Of The Mountain King (From Peer Gynt) (Grieg)
TTITLE5=Gonna Build a Mountain(Newley)
TTITLE6=When The Saints Go Marching In (Traditional)
TTITLE7=Hallelujah (Youmans)
TTITLE8=Hello Dolly! (Herman)
TTITLE9=Shadow Waltz (Warren-Dubin)
TTITLE10=Skyliner (Barnet)
TTITLE11=Moonlight In Vermont (Blackburn-Suessdorf)
TTITLE12=Frenesi (Dominguez)
TTITLE13=Isn't It Romantic (From Love Me Tonight) (Rodgers-Hart)
EXTD=
EXTT0=
EXTT1=
EXTT2=
EXTT3=
EXTT4=
EXTT5=
EXTT6=
EXTT7=
EXTT8=
EXTT9=
EXTT10=
EXTT11=
EXTT12=
EXTT13=
PLAYORDER=
